<svg width="28" height="28" viewBox="0 0 28 28" fill="none" xmlns="http://www.w3.org/2000/svg">
<path d="M27.393 21.36C26.519 20.627 21.393 17.381 20.541 17.53C20.141 17.601 19.835 17.942 19.016 18.919C18.6372 19.3999 18.2213 19.8503 17.772 20.266C16.9488 20.0671 16.1519 19.7718 15.398 19.386C12.4413 17.9465 10.0526 15.5571 8.614 12.6C8.22824 11.8461 7.93286 11.0492 7.734 10.226C8.14973 9.7767 8.60011 9.36075 9.081 8.982C10.057 8.163 10.399 7.859 10.47 7.457C10.619 6.603 7.37 1.479 6.64 0.605C6.334 0.243 6.056 0 5.7 0C4.668 0 0 5.772 0 6.52C0 6.581 0.0999999 12.59 7.689 20.311C15.41 27.9 21.419 28 21.48 28C22.228 28 28 23.332 28 22.3C28 21.944 27.757 21.666 27.393 21.36Z" fill="white"/>
<path d="M21 13H23C22.9976 10.879 22.154 8.84555 20.6542 7.34578C19.1544 5.846 17.121 5.00238 15 5V7C16.5908 7.00159 18.116 7.63424 19.2409 8.75911C20.3658 9.88399 20.9984 11.4092 21 13Z" fill="white"/>
<path d="M26 13H28C27.996 9.5534 26.6251 6.24911 24.188 3.812C21.7509 1.37488 18.4466 0.00396997 15 0V2C17.9163 2.00344 20.7122 3.16347 22.7744 5.22563C24.8365 7.28778 25.9966 10.0837 26 13Z" fill="white"/>
</svg>
